<svg width="32" height="32" viewBox="0 0 32 32" fill="none" xmlns="http://www.w3.org/2000/svg">
<path fill-rule="evenodd" clip-rule="evenodd" d="M16 0C24.8366 0 32 7.16344 32 16C32 24.8366 24.8366 32 16 32C7.16344 32 0 24.8366 0 16C0 7.16344 7.16344 0 16 0ZM20.2627 13.9723C20.1849 13.3401 19.9906 12.8436 19.6455 12.4039C19.1974 11.8378 18.6248 11.4987 17.777 11.2976C17.2245 11.1636 17.0013 11.1789 16.8015 11.3615C16.6153 11.5325 16.579 11.8753 16.7212 12.0973C16.8213 12.2584 16.9366 12.3162 17.2576 12.3792C17.685 12.4578 17.9804 12.5599 18.2491 12.7135C18.8194 13.0428 19.0849 13.5581 19.1134 14.3923C19.1267 14.784 19.1605 14.9044 19.2973 15.0434C19.5509 15.2973 20.0021 15.2479 20.1936 14.944C20.2638 14.8295 20.2745 14.7796 20.2819 14.5136C20.2868 14.349 20.2798 14.1039 20.2627 13.9723ZM20.2703 10.0934C21.6262 11.1899 22.3838 12.7482 22.4964 14.6851C22.5438 15.448 22.4809 15.6965 22.2117 15.838C21.9688 15.9691 21.6937 15.926 21.5049 15.7285C21.3798 15.6001 21.3318 15.4245 21.3336 15.1135C21.3391 14.2537 21.141 13.2935 20.819 12.6272C20.4462 11.8517 19.8699 11.1917 19.1451 10.7093C18.5101 10.2855 17.6698 9.99926 16.855 9.92797C16.3266 9.88174 16.1378 9.79223 16.0364 9.53888C15.9736 9.38733 15.9902 9.12532 16.0638 9.00797C16.1335 8.89976 16.2898 8.7801 16.4003 8.74847C16.5174 8.7143 17.2001 8.77403 17.5708 8.84771C18.583 9.05373 19.5064 9.47736 20.2703 10.0934ZM24.9677 22.1441C24.9299 22.0334 24.8415 21.8626 24.7783 21.7646C24.3804 21.1637 22.2426 19.4907 21.1753 18.9435C20.5658 18.6305 20.1142 18.5261 19.7795 18.6241C19.4195 18.7254 19.23 18.8929 18.6269 19.6425C18.3838 19.9429 18.1343 20.2244 18.068 20.2687C17.9038 20.3825 17.5817 20.4743 17.3543 20.4743C16.827 20.4711 15.8702 20.1295 15.1344 19.6804C14.5628 19.3326 13.8303 18.7096 13.2682 18.0928C12.605 17.3686 12.1535 16.7298 11.7966 16.0087C11.3356 15.0821 11.2188 14.5159 11.4114 14.1016C11.4587 13.9973 11.5219 13.8866 11.5503 13.8518C11.5787 13.8202 11.8756 13.5767 12.2039 13.311C12.8482 12.7987 12.9524 12.6817 13.0724 12.3306C13.2239 11.8847 13.1829 11.4293 12.9492 10.9707C12.7692 10.6228 12.2987 9.8638 11.9577 9.37362C11.5061 8.72848 10.3819 7.34959 10.1577 7.16295C9.7535 6.83407 9.23567 6.77711 8.66406 6.99854C8.06097 7.23257 6.93045 8.14338 6.44729 8.77907C6.01152 9.35464 5.84421 9.7626 5.81892 10.3002C5.79683 10.743 5.83471 10.9264 6.06839 11.4925C7.89676 15.9328 10.625 19.478 14.3734 22.2927C16.3312 23.7633 18.3617 24.8829 20.4679 25.6483C21.6963 26.0941 22.2299 26.1163 22.8583 25.7495C23.1236 25.5913 23.7804 24.9177 24.1467 24.4275C24.753 23.6115 24.9772 23.2352 25.0404 22.9347C25.0846 22.7292 25.0499 22.3718 24.9677 22.1441ZM24.1612 12.1337C24.5459 13.1357 24.7303 14.0344 24.7708 15.13C24.7772 15.3464 24.7742 15.743 24.7602 16.0116C24.731 16.5266 24.703 16.6289 24.5548 16.7651C24.3165 16.9887 23.8521 16.9354 23.6759 16.666C23.5839 16.5214 23.571 16.4155 23.5888 15.8139C23.6399 14.0342 23.28 12.6408 22.4129 11.2475C21.3768 9.57583 19.827 8.44974 17.8116 7.89882C17.2977 7.75859 16.8646 7.67313 16.191 7.58244C15.7522 7.52501 15.6561 7.50073 15.5478 7.43407C15.2207 7.22454 15.2163 6.69395 15.5424 6.48123C15.7107 6.36894 15.8348 6.36392 16.3834 6.43417C17.9919 6.63518 19.4272 7.11315 20.6066 7.83541C21.452 8.3538 21.985 8.8195 22.6713 9.63512C23.3971 10.505 23.7815 11.1481 24.1612 12.1337Z" fill="#C5A7EB"/>
</svg>
