<svg width="32" height="32" viewBox="0 0 32 32" fill="none" xmlns="http://www.w3.org/2000/svg">
<path fill-rule="evenodd" clip-rule="evenodd" d="M0 16C0 7.16344 7.16344 0 16 0C24.8366 0 32 7.16344 32 16C32 24.8366 24.8366 32 16 32C7.16344 32 0 24.8366 0 16ZM15.9891 16.2569C18.3485 16.2569 20.2664 14.4053 20.2664 12.1291C20.2664 9.85207 18.3485 8 15.9891 8C13.6303 8 11.7119 9.85207 11.7119 12.1291C11.7119 14.4053 13.6303 16.2569 15.9891 16.2569ZM20.2144 18.634C19.441 19.1029 18.6013 19.4354 17.7306 19.6269L20.1218 21.9352C20.6116 22.4071 20.6116 23.1734 20.1218 23.6457C19.6324 24.1181 18.8393 24.1181 18.3505 23.6457L15.9996 21.3774L13.6507 23.6457C13.4058 23.8817 13.0848 23.9998 12.7639 23.9998C12.4435 23.9998 12.1231 23.8817 11.8781 23.6457C11.3888 23.1734 11.3888 22.4076 11.8776 21.9352L14.269 19.6269C13.3983 19.4354 12.5586 19.1024 11.7852 18.634C11.1999 18.2778 11.0241 17.5315 11.3929 16.966C11.7607 16.3998 12.5341 16.2293 13.1204 16.5855C14.8714 17.6488 17.1272 17.6491 18.8792 16.5855C19.4656 16.2293 20.2387 16.3998 20.6072 16.966C20.976 17.531 20.7997 18.2778 20.2144 18.634Z" fill="#C5A7EB"/>
</svg>
