<svg width="32" height="32" viewBox="0 0 32 32" fill="none" xmlns="http://www.w3.org/2000/svg">
<rect width="32" height="32" rx="8" fill="#5C25C5"/>
<path fill-rule="evenodd" clip-rule="evenodd" d="M25.8999 9.57143C25.8999 8.97969 25.4634 8.5 24.9249 8.5H7.3749C6.83642 8.5 6.3999 8.97969 6.3999 9.57143C6.3999 10.1632 6.83642 10.6429 7.3749 10.6429H24.9249C25.4634 10.6429 25.8999 10.1632 25.8999 9.57143ZM25.8999 16C25.8999 15.4083 25.4634 14.9286 24.9249 14.9286H7.3749C6.83642 14.9286 6.3999 15.4083 6.3999 16C6.3999 16.5917 6.83642 17.0714 7.3749 17.0714H24.9249C25.4634 17.0714 25.8999 16.5917 25.8999 16ZM25.8999 22.4286C25.8999 21.8368 25.4634 21.3571 24.9249 21.3571H7.3749C6.83642 21.3571 6.3999 21.8368 6.3999 22.4286C6.3999 23.0203 6.83642 23.5 7.3749 23.5H24.9249C25.4634 23.5 25.8999 23.0203 25.8999 22.4286Z" fill="white"/>
</svg>
