<svg width="32" height="32" viewBox="0 0 32 32" fill="none" xmlns="http://www.w3.org/2000/svg">
<rect width="32" height="32" rx="8" fill="#5C25C5"/>
<path fill-rule="evenodd" clip-rule="evenodd" d="M6.50015 6.19965C5.96719 6.73262 5.96719 7.59673 6.50015 8.12969L23.8704 25.5001C24.4034 26.033 25.2675 26.033 25.8005 25.5001C26.3334 24.9671 26.3334 24.103 25.8005 23.57L8.43019 6.19965C7.89722 5.66668 7.03312 5.66668 6.50015 6.19965Z" fill="white"/>
<path fill-rule="evenodd" clip-rule="evenodd" d="M6.49992 25.5C7.03288 26.0329 7.89698 26.0329 8.42995 25.5L25.8002 8.12957C26.3332 7.59661 26.3332 6.7325 25.8002 6.19953C25.2673 5.66656 24.4032 5.66656 23.8702 6.19953L6.49992 23.5699C5.96695 24.1029 5.96695 24.967 6.49992 25.5Z" fill="white"/>
</svg>
