<svg width="32" height="32" viewBox="0 0 32 32" fill="none" xmlns="http://www.w3.org/2000/svg">
<path d="M21.3333 15.9989V18.6657C21.3333 20.1365 20.1373 21.3326 18.6667 21.3326H13.3333C11.8627 21.3326 10.6667 20.1365 10.6667 18.6657V15.9989H0V27.9997C0 30.2052 1.79467 32 4 32H28C30.2053 32 32 30.2052 32 27.9997V15.9989H21.3333ZM29.3333 27.9997C29.3333 28.3534 29.1929 28.6925 28.9428 28.9426C28.6928 29.1927 28.3536 29.3331 28 29.3331H4C3.64638 29.3331 3.30724 29.1927 3.05719 28.9426C2.80714 28.6925 2.66667 28.3534 2.66667 27.9997V18.6657H8C8 21.6073 10.392 23.9994 13.3333 23.9994H18.6667C21.608 23.9994 24 21.6073 24 18.6657H29.3333V27.9997ZM11.6093 7.0556L9.724 5.17014L14.1147 0.779166C14.6153 0.280186 15.2932 0 16 0C16.7068 0 17.3847 0.280186 17.8853 0.779166L22.276 5.17014L20.3907 7.0556L17.3333 3.99806V14.6655H14.6667V3.99806L11.6093 7.0556Z" fill="#5C25C5"/>
</svg>
