<svg width="21" height="21" viewBox="0 0 21 21" fill="none" xmlns="http://www.w3.org/2000/svg">
<path fill-rule="evenodd" clip-rule="evenodd" d="M20.4998 1.19965C21.0328 1.73262 21.0328 2.59673 20.4998 3.12969L3.12956 20.5001C2.5966 21.033 1.73249 21.033 1.19953 20.5001C0.666564 19.9671 0.666564 19.103 1.19953 18.57L18.5698 1.19965C19.1028 0.666684 19.9669 0.666684 20.4998 1.19965Z" fill="#C5A7EB"/>
<path fill-rule="evenodd" clip-rule="evenodd" d="M20.5001 20.5C19.9671 21.0329 19.103 21.0329 18.5701 20.5L1.19976 3.12957C0.666801 2.59661 0.666801 1.7325 1.19976 1.19953C1.73273 0.666563 2.59683 0.666563 3.1298 1.19953L20.5001 18.5699C21.033 19.1029 21.033 19.967 20.5001 20.5Z" fill="#C5A7EB"/>
</svg>
