<svg width="32" height="32" viewBox="0 0 32 32" fill="none" xmlns="http://www.w3.org/2000/svg">
<path d="M23.3304 2.40002C21.8296 2.42327 20.3615 2.84048 19.0744 3.60952C17.7874 4.37856 16.7269 5.4722 16 6.78C15.2731 5.4722 14.2126 4.37856 12.9256 3.60952C11.6385 2.84048 10.1704 2.42327 8.66962 2.40002C6.27718 2.50354 4.02311 3.54579 2.39986 5.29908C0.776621 7.05237 -0.0838454 9.37417 0.0064522 11.7572C0.0064522 17.7923 6.38521 24.3835 11.7351 28.8524C12.9295 29.852 14.4398 30.4 16 30.4C17.5602 30.4 19.0705 29.852 20.2649 28.8524C25.6148 24.3835 31.9935 17.7923 31.9935 11.7572C32.0838 9.37417 31.2234 7.05237 29.6001 5.29908C27.9769 3.54579 25.7228 2.50354 23.3304 2.40002ZM18.5523 26.8217C17.8379 27.4208 16.934 27.7493 16 27.7493C15.066 27.7493 14.1621 27.4208 13.4477 26.8217C6.59979 21.0998 2.67204 15.6103 2.67204 11.7572C2.58093 10.0779 3.16033 8.43075 4.28388 7.17512C5.40742 5.91949 6.98395 5.15722 8.66962 5.05455C10.3553 5.15722 11.9318 5.91949 13.0554 7.17512C14.1789 8.43075 14.7583 10.0779 14.6672 11.7572C14.6672 12.1093 14.8076 12.4468 15.0576 12.6958C15.3075 12.9447 15.6465 13.0845 16 13.0845C16.3535 13.0845 16.6925 12.9447 16.9424 12.6958C17.1924 12.4468 17.3328 12.1093 17.3328 11.7572C17.2417 10.0779 17.8211 8.43075 18.9446 7.17512C20.0682 5.91949 21.6447 5.15722 23.3304 5.05455C25.0161 5.15722 26.5926 5.91949 27.7161 7.17512C28.8397 8.43075 29.4191 10.0779 29.328 11.7572C29.328 15.6103 25.4002 21.0998 18.5523 26.8164V26.8217Z" fill="#1F074D"/>
</svg>
