<svg width="29" height="22" viewBox="0 0 29 22" fill="none" xmlns="http://www.w3.org/2000/svg">
<path d="M4.74545 1.48028C5.44848 0.595512 6.15152 0.119101 6.85455 0.051043C7.62788 -0.0850728 8.26061 0.0510451 8.75273 0.459397C9.31515 0.79969 9.63152 1.34416 9.70182 2.0928C9.77212 2.84145 9.45576 3.65816 8.75273 4.54292C7.62788 5.97216 6.81939 7.43542 6.32727 8.93271C5.90545 10.3619 5.69455 11.6891 5.69455 12.9142L5.37818 10.8724C7.20606 10.8724 8.68243 11.3828 9.80727 12.4037C10.9321 13.3565 11.4945 14.6837 11.4945 16.3852C11.4945 18.0186 10.9673 19.3797 9.91273 20.4687C8.85818 21.4896 7.48727 22 5.8 22C3.97212 22 2.53091 21.4215 1.47636 20.2645C0.492121 19.0394 0 17.3039 0 15.058C0 13.6288 0.105455 12.1655 0.316364 10.6682C0.597576 9.10286 1.0897 7.53751 1.79273 5.97216C2.56606 4.40681 3.5503 2.90951 4.74545 1.48028ZM22.2509 1.48028C22.9539 0.595512 23.657 0.119101 24.36 0.051043C25.1333 -0.0850728 25.7661 0.0510451 26.2582 0.459397C26.8206 0.79969 27.137 1.34416 27.2073 2.0928C27.2776 2.84145 26.9612 3.65816 26.2582 4.54292C25.1333 5.97216 24.3249 7.43542 23.8327 8.93271C23.4109 10.3619 23.2 11.6891 23.2 12.9142L22.8836 10.8724C24.7115 10.8724 26.1879 11.3828 27.3127 12.4037C28.4376 13.3565 29 14.6837 29 16.3852C29 18.0186 28.4727 19.3797 27.4182 20.4687C26.3636 21.4896 24.9927 22 23.3055 22C21.4776 22 20.0364 21.4215 18.9818 20.2645C17.9976 19.0394 17.5055 17.3039 17.5055 15.058C17.5055 13.6288 17.6109 12.1655 17.8218 10.6682C18.103 9.10286 18.5952 7.53751 19.2982 5.97216C20.0715 4.40681 21.0558 2.90951 22.2509 1.48028Z" fill="#5C25C5"/>
</svg>
