<svg width="28" height="28" viewBox="0 0 28 28" fill="none" xmlns="http://www.w3.org/2000/svg">
<path d="M11.7101 20.6065C12.0107 20.9073 12.3677 21.146 12.7606 21.3088C13.1536 21.4716 13.5747 21.5554 14 21.5554C14.4254 21.5554 14.8465 21.4716 15.2395 21.3088C15.6324 21.146 15.9894 20.9073 16.29 20.6065L19.7552 17.1413C19.941 16.9358 20.0407 16.6667 20.0336 16.3898C20.0265 16.1129 19.9131 15.8493 19.717 15.6536C19.521 15.4579 19.2571 15.3451 18.9802 15.3386C18.7032 15.3321 18.4344 15.4323 18.2293 15.6186L15.0717 18.7773L15.0792 2.12897C15.0792 1.84276 14.9655 1.56827 14.7631 1.36589C14.5608 1.1635 14.2863 1.0498 14 1.0498C13.7138 1.0498 13.4393 1.1635 13.237 1.36589C13.0346 1.56827 12.9209 1.84276 12.9209 2.12897L12.9112 18.7568L9.77079 15.6186C9.5683 15.4162 9.29371 15.3026 9.00744 15.3027C8.72117 15.3028 8.44667 15.4166 8.24431 15.6191C8.04196 15.8216 7.92834 16.0962 7.92844 16.3824C7.92854 16.6687 8.04236 16.9432 8.24485 17.1456L11.7101 20.6065Z" fill="#1F074D"/>
<path d="M25.8709 18.3165C25.5847 18.3165 25.3102 18.4302 25.1078 18.6326C24.9054 18.8349 24.7917 19.1094 24.7917 19.3956V23.7123C24.7917 23.9985 24.678 24.273 24.4756 24.4754C24.2733 24.6778 23.9988 24.7915 23.7125 24.7915H4.28755C4.00134 24.7915 3.72685 24.6778 3.52446 24.4754C3.32208 24.273 3.20838 23.9985 3.20838 23.7123V19.3956C3.20838 19.1094 3.09468 18.8349 2.8923 18.6326C2.68992 18.4302 2.41543 18.3165 2.12922 18.3165C1.843 18.3165 1.56851 18.4302 1.36613 18.6326C1.16375 18.8349 1.05005 19.1094 1.05005 19.3956V23.7123C1.05005 24.5709 1.39114 25.3944 1.99829 26.0016C2.60544 26.6087 3.42891 26.9498 4.28755 26.9498H23.7125C24.5712 26.9498 25.3947 26.6087 26.0018 26.0016C26.609 25.3944 26.95 24.5709 26.95 23.7123V19.3956C26.95 19.1094 26.8363 18.8349 26.634 18.6326C26.4316 18.4302 26.1571 18.3165 25.8709 18.3165Z" fill="#1F074D"/>
</svg>
