<svg width="28" height="28" viewBox="0 0 28 28" fill="none" xmlns="http://www.w3.org/2000/svg">
<path d="M27.6582 26.0082L20.6943 19.0444C22.5921 16.7234 23.5251 13.7619 23.3005 10.7722C23.0759 7.78261 21.7107 4.9937 19.4875 2.98235C17.2643 0.971008 14.353 -0.10888 11.3559 -0.033943C8.3588 0.0409942 5.50514 1.26502 3.38521 3.38496C1.26527 5.5049 0.0412383 8.35855 -0.0336988 11.3557C-0.108636 14.3528 0.971252 17.264 2.9826 19.4873C4.99394 21.7105 7.78286 23.0756 10.7725 23.3002C13.7621 23.5249 16.7237 22.5918 19.0447 20.6941L26.0085 27.6579C26.2285 27.8704 26.5232 27.988 26.8291 27.9854C27.135 27.9827 27.4276 27.86 27.6439 27.6437C27.8603 27.4274 27.983 27.1348 27.9856 26.8289C27.9883 26.523 27.8707 26.2283 27.6582 26.0082ZM11.6667 20.9997C9.8207 20.9997 8.01619 20.4524 6.48133 19.4268C4.94647 18.4012 3.7502 16.9436 3.04378 15.2381C2.33736 13.5327 2.15253 11.6561 2.51266 9.84557C2.87279 8.03508 3.7617 6.37204 5.06699 5.06675C6.37228 3.76146 8.03532 2.87254 9.84581 2.51242C11.6563 2.15229 13.5329 2.33712 15.2384 3.04354C16.9438 3.74995 18.4015 4.94623 19.427 6.48109C20.4526 8.01595 21 9.82045 21 11.6664C20.9972 14.1409 20.013 16.5133 18.2633 18.263C16.5135 20.0127 14.1412 20.997 11.6667 20.9997Z" fill="white"/>
<path d="M15.1667 10.4997H12.8333V8.16641C12.8333 7.85699 12.7104 7.56025 12.4916 7.34145C12.2728 7.12266 11.9761 6.99975 11.6667 6.99975C11.3572 6.99975 11.0605 7.12266 10.8417 7.34145C10.6229 7.56025 10.5 7.85699 10.5 8.16641V10.4997H8.16666C7.85724 10.4997 7.56049 10.6227 7.3417 10.8415C7.12291 11.0602 6.99999 11.357 6.99999 11.6664C6.99999 11.9758 7.12291 12.2726 7.3417 12.4914C7.56049 12.7102 7.85724 12.8331 8.16666 12.8331H10.5V15.1664C10.5 15.4758 10.6229 15.7726 10.8417 15.9914C11.0605 16.2102 11.3572 16.3331 11.6667 16.3331C11.9761 16.3331 12.2728 16.2102 12.4916 15.9914C12.7104 15.7726 12.8333 15.4758 12.8333 15.1664V12.8331H15.1667C15.4761 12.8331 15.7728 12.7102 15.9916 12.4914C16.2104 12.2726 16.3333 11.9758 16.3333 11.6664C16.3333 11.357 16.2104 11.0602 15.9916 10.8415C15.7728 10.6227 15.4761 10.4997 15.1667 10.4997Z" fill="white"/>
</svg>
