<svg width="28" height="28" viewBox="0 0 28 28" fill="none" xmlns="http://www.w3.org/2000/svg">
<g clip-path="url(#clip0_157_8643)">
<path d="M22.1667 7V4.66667C22.1667 3.42899 21.675 2.242 20.7998 1.36683C19.9247 0.491665 18.7377 0 17.5 0H10.5C9.26232 0 8.07534 0.491665 7.20017 1.36683C6.325 2.242 5.83333 3.42899 5.83333 4.66667V7C4.28681 7.00185 2.80415 7.61703 1.71059 8.71059C0.617029 9.80415 0.0018525 11.2868 0 12.8333V18.6667C0.0018525 20.2132 0.617029 21.6959 1.71059 22.7894C2.80415 23.883 4.28681 24.4981 5.83333 24.5C5.83333 25.4283 6.20208 26.3185 6.85846 26.9749C7.51484 27.6313 8.40508 28 9.33333 28H18.6667C19.5949 28 20.4852 27.6313 21.1415 26.9749C21.7979 26.3185 22.1667 25.4283 22.1667 24.5C23.7132 24.4981 25.1959 23.883 26.2894 22.7894C27.383 21.6959 27.9981 20.2132 28 18.6667V12.8333C27.9981 11.2868 27.383 9.80415 26.2894 8.71059C25.1959 7.61703 23.7132 7.00185 22.1667 7ZM8.16667 4.66667C8.16667 4.04783 8.4125 3.45434 8.85008 3.01675C9.28767 2.57917 9.88116 2.33333 10.5 2.33333H17.5C18.1188 2.33333 18.7123 2.57917 19.1499 3.01675C19.5875 3.45434 19.8333 4.04783 19.8333 4.66667V7H8.16667V4.66667ZM19.8333 24.5C19.8333 24.8094 19.7104 25.1062 19.4916 25.325C19.2728 25.5438 18.9761 25.6667 18.6667 25.6667H9.33333C9.02391 25.6667 8.72717 25.5438 8.50838 25.325C8.28958 25.1062 8.16667 24.8094 8.16667 24.5V19.8333C8.16667 19.5239 8.28958 19.2272 8.50838 19.0084C8.72717 18.7896 9.02391 18.6667 9.33333 18.6667H18.6667C18.9761 18.6667 19.2728 18.7896 19.4916 19.0084C19.7104 19.2272 19.8333 19.5239 19.8333 19.8333V24.5ZM25.6667 18.6667C25.6667 19.5949 25.2979 20.4852 24.6415 21.1415C23.9852 21.7979 23.0949 22.1667 22.1667 22.1667V19.8333C22.1667 18.9051 21.7979 18.0148 21.1415 17.3585C20.4852 16.7021 19.5949 16.3333 18.6667 16.3333H9.33333C8.40508 16.3333 7.51484 16.7021 6.85846 17.3585C6.20208 18.0148 5.83333 18.9051 5.83333 19.8333V22.1667C4.90508 22.1667 4.01484 21.7979 3.35846 21.1415C2.70208 20.4852 2.33333 19.5949 2.33333 18.6667V12.8333C2.33333 11.9051 2.70208 11.0148 3.35846 10.3585C4.01484 9.70208 4.90508 9.33333 5.83333 9.33333H22.1667C23.0949 9.33333 23.9852 9.70208 24.6415 10.3585C25.2979 11.0148 25.6667 11.9051 25.6667 12.8333V18.6667Z" fill="#1F074D"/>
<path d="M21 11.6667H18.6667C18.3572 11.6667 18.0605 11.7896 17.8417 12.0084C17.6229 12.2272 17.5 12.5239 17.5 12.8333C17.5 13.1428 17.6229 13.4395 17.8417 13.6583C18.0605 13.8771 18.3572 14 18.6667 14H21C21.3094 14 21.6062 13.8771 21.825 13.6583C22.0438 13.4395 22.1667 13.1428 22.1667 12.8333C22.1667 12.5239 22.0438 12.2272 21.825 12.0084C21.6062 11.7896 21.3094 11.6667 21 11.6667Z" fill="#1F074D"/>
</g>
<defs>
<clipPath id="clip0_157_8643">
<rect width="28" height="28" fill="white"/>
</clipPath>
</defs>
</svg>
