<svg width="21" height="21" viewBox="0 0 21 21" fill="none" xmlns="http://www.w3.org/2000/svg">
<path fill-rule="evenodd" clip-rule="evenodd" d="M0.500154 1.19965C-0.0328102 1.73262 -0.0328102 2.59673 0.500154 3.12969L17.8704 20.5001C18.4034 21.033 19.2675 21.033 19.8005 20.5001C20.3334 19.9671 20.3334 19.103 19.8005 18.57L2.43019 1.19965C1.89722 0.666684 1.03312 0.666684 0.500154 1.19965Z" fill="white"/>
<path fill-rule="evenodd" clip-rule="evenodd" d="M0.499918 20.5C1.03288 21.0329 1.89698 21.0329 2.42995 20.5L19.8002 3.12957C20.3332 2.59661 20.3332 1.7325 19.8002 1.19953C19.2673 0.666563 18.4032 0.666563 17.8702 1.19953L0.499918 18.5699C-0.0330467 19.1029 -0.0330467 19.967 0.499918 20.5Z" fill="white"/>
</svg>
