<svg width="19" height="10" viewBox="0 0 19 10" fill="none" xmlns="http://www.w3.org/2000/svg">
<path d="M17.9199 0.883502C17.7984 0.761984 17.6539 0.665531 17.4946 0.599709C17.3353 0.533888 17.1645 0.5 16.992 0.5C16.8194 0.5 16.6486 0.533888 16.4893 0.599709C16.3301 0.665531 16.1855 0.761984 16.064 0.883502L10.078 6.82147C9.95646 6.94299 9.81191 7.03944 9.65264 7.10526C9.49337 7.17109 9.32254 7.20497 9.15 7.20497C8.97746 7.20497 8.80663 7.17109 8.64736 7.10526C8.48809 7.03944 8.34353 6.94299 8.22203 6.82147L2.236 0.883502C2.11449 0.761984 1.96994 0.665531 1.81067 0.599709C1.6514 0.533888 1.48057 0.5 1.30803 0.5C1.13549 0.5 0.96466 0.533888 0.805391 0.599709C0.646121 0.665531 0.501566 0.761984 0.380064 0.883502C0.136635 1.12642 0 1.45502 0 1.79753C0 2.14005 0.136635 2.46865 0.380064 2.71157L6.37917 8.6625C7.11436 9.39088 8.11093 9.8 9.15 9.8C10.1891 9.8 11.1856 9.39088 11.9208 8.6625L17.9199 2.71157C18.1634 2.46865 18.3 2.14005 18.3 1.79753C18.3 1.45502 18.1634 1.12642 17.9199 0.883502Z" fill="#C5A7EB"/>
</svg>
