<svg width="19" height="10" viewBox="0 0 19 10" fill="none" xmlns="http://www.w3.org/2000/svg">
<path d="M17.9199 9.1165C17.7984 9.23802 17.6539 9.33447 17.4946 9.40029C17.3353 9.46611 17.1645 9.5 16.992 9.5C16.8194 9.5 16.6486 9.46611 16.4893 9.40029C16.3301 9.33447 16.1855 9.23802 16.064 9.1165L10.078 3.17853C9.95646 3.05701 9.81191 2.96056 9.65264 2.89474C9.49337 2.82891 9.32254 2.79503 9.15 2.79503C8.97746 2.79503 8.80663 2.82891 8.64736 2.89474C8.48809 2.96056 8.34353 3.05701 8.22203 3.17853L2.236 9.1165C2.11449 9.23802 1.96994 9.33447 1.81067 9.40029C1.6514 9.46611 1.48057 9.5 1.30803 9.5C1.13549 9.5 0.96466 9.46611 0.805391 9.40029C0.646121 9.33447 0.501566 9.23802 0.380064 9.1165C0.136635 8.87358 0 8.54498 0 8.20247C0 7.85995 0.136635 7.53135 0.380064 7.28843L6.37917 1.3375C7.11436 0.609122 8.11093 0.200001 9.15 0.200001C10.1891 0.200001 11.1856 0.609122 11.9208 1.3375L17.9199 7.28843C18.1634 7.53135 18.3 7.85995 18.3 8.20247C18.3 8.54498 18.1634 8.87358 17.9199 9.1165Z" fill="#5C25C5"/>
</svg>
