<svg width="20" height="16" viewBox="0 0 20 16" fill="none" xmlns="http://www.w3.org/2000/svg">
<path fill-rule="evenodd" clip-rule="evenodd" d="M19.8999 1.57143C19.8999 0.979695 19.4634 0.5 18.9249 0.5H1.3749C0.836424 0.5 0.399902 0.979695 0.399902 1.57143C0.399902 2.16316 0.836424 2.64286 1.3749 2.64286H18.9249C19.4634 2.64286 19.8999 2.16316 19.8999 1.57143ZM19.8999 8C19.8999 7.40827 19.4634 6.92857 18.9249 6.92857H1.3749C0.836424 6.92857 0.399902 7.40827 0.399902 8C0.399902 8.59173 0.836424 9.07143 1.3749 9.07143H18.9249C19.4634 9.07143 19.8999 8.59173 19.8999 8ZM19.8999 14.4286C19.8999 13.8368 19.4634 13.3571 18.9249 13.3571H1.3749C0.836424 13.3571 0.399902 13.8368 0.399902 14.4286C0.399902 15.0203 0.836424 15.5 1.3749 15.5H18.9249C19.4634 15.5 19.8999 15.0203 19.8999 14.4286Z" fill="white"/>
</svg>
